<?xml version="1.0" encoding="UTF-8"?>
<svg width="18px" height="18px" viewBox="0 0 18 18" version="1.1" xmlns="http://www.w3.org/2000/svg" xmlns:xlink="http://www.w3.org/1999/xlink">
    <!-- Generator: Sketch 59 (86127) - https://sketch.com -->
    <title>Icon</title>
    <desc>Created with Sketch.</desc>
    <defs>
        <path d="M11.5510833,6.92466667 L13.9360833,9.42466667 C13.9719167,9.46216667 13.9894167,9.50883333 14.0169167,9.5505 C14.0469167,9.5955 14.08275,9.6355 14.1035833,9.6855 C14.1444167,9.78633333 14.1669167,9.893 14.1669167,9.99966667 C14.1669167,10.1088333 14.1444167,10.2171667 14.10275,10.3188333 C14.06025,10.4205 13.9994167,10.513 13.9219167,10.5896667 L11.42275,13.0888333 C11.0969167,13.4146667 10.5694167,13.4146667 10.2444167,13.0888333 C9.91858333,12.7638333 9.91858333,12.2363333 10.2444167,11.9105 L11.3219167,10.833 L6.66691667,10.833 C6.20608333,10.833 5.83358333,10.4605 5.83358333,9.99966667 C5.83358333,9.53966667 6.20608333,9.16633333 6.66691667,9.16633333 L11.3860833,9.16633333 L10.34525,8.0755 C10.02775,7.74216667 10.0394167,7.2155 10.37275,6.89716667 C10.7060833,6.57883333 11.2335833,6.59216667 11.5510833,6.92466667 M1.66691667,9.99966667 C1.66691667,14.5955 5.40525,18.333 10.00025,18.333 C14.59525,18.333 18.3335833,14.5955 18.3335833,9.99966667 C18.3335833,5.40466667 14.59525,1.66633333 10.00025,1.66633333 C5.40525,1.66633333 1.66691667,5.40466667 1.66691667,9.99966667" id="path-1"></path>
    </defs>
    <g id="Page-1" stroke="none" stroke-width="1" fill="none" fill-rule="evenodd">
        <g id="arrow-circle-right-fill" transform="translate(-1.000000, -1.000000)">
            <mask id="mask-2" fill="white">
                <use xlink:href="#path-1"></use>
            </mask>
            <use id="🎨-Icon-color" fill="#FFFFFF" fill-rule="evenodd" xlink:href="#path-1"></use>
        </g>
    </g>
</svg>