<?xml version="1.0" encoding="UTF-8"?>
<svg width="22px" height="23px" viewBox="0 0 22 23" version="1.1" xmlns="http://www.w3.org/2000/svg" xmlns:xlink="http://www.w3.org/1999/xlink">
    <!-- Generator: Sketch 53.2 (72643) - https://sketchapp.com -->
    <title>Download-blue</title>
    <desc>Created with Sketch.</desc>
    <defs>
        <path d="M14.6704471,16.1011945 C14.6679418,16.0677899 14.6666667,16.0340433 14.6666667,16 L14.6666667,5.33333333 C14.6666667,4.59733333 15.2626667,4 16,4 C16.7373333,4 17.3333333,4.59733333 17.3333333,5.33333333 L17.3333333,15.999766 L20.5333333,13.6 C21.1226667,13.156 21.9586667,13.2773333 22.4,13.8666667 C22.8426667,14.456 22.7226667,15.292 22.1333333,15.7333333 L16.8,19.7333333 C16.564,19.9106667 16.2813333,20 16,20 C15.732,20 15.464,19.9186667 15.2333333,19.7573333 L9.9,16.0053333 C9.29733333,15.5813333 9.152,14.7493333 9.576,14.148 C10,13.5453333 10.8306667,13.4 11.4333333,13.824 L14.6704471,16.1011945 Z M26.6666667,25.3333333 C26.6666667,26.0666667 26.0666667,26.6666667 25.3333333,26.6666667 L6.66666667,26.6666667 C5.93333333,26.6666667 5.33333333,26.0666667 5.33333333,25.3333333 L5.33333333,22.6666667 C5.33333333,21.9333333 5.93333333,21.3333333 6.66666667,21.3333333 C7.4,21.3333333 8,21.9333333 8,22.6666667 L8,24 L24,24 L24,22.6666667 C24,21.9333333 24.6,21.3333333 25.3333333,21.3333333 C26.0666667,21.3333333 26.6666667,21.9333333 26.6666667,22.6666667 L26.6666667,25.3333333 Z" id="path-1"></path>
    </defs>
    <g id="Page-1" stroke="none" stroke-width="1" fill="none" fill-rule="evenodd">
        <g id="Landing-Page" transform="translate(-365.000000, -2383.000000)">
            <g id="Group-4" transform="translate(144.000000, 2363.000000)">
                <g id="download" transform="translate(216.000000, 16.000000)">
                    <mask id="mask-2" fill="white">
                        <use xlink:href="#path-1"></use>
                    </mask>
                    <use id="🎨-Icon-color" fill="#0095FF" fill-rule="evenodd" xlink:href="#path-1"></use>
                </g>
            </g>
        </g>
    </g>
</svg>