<?xml version="1.0" encoding="UTF-8"?>
<svg width="30px" height="29px" viewBox="0 0 30 29" version="1.1" xmlns="http://www.w3.org/2000/svg" xmlns:xlink="http://www.w3.org/1999/xlink">
    <!-- Generator: Sketch 53.2 (72643) - https://sketchapp.com -->
    <title>Github</title>
    <desc>Created with Sketch.</desc>
    <defs>
        <path d="M15.9993333,1.33333333 C7.90066667,1.33333333 1.33266667,7.76 1.33266667,15.6893333 C1.33266667,22.0293333 5.53533333,27.4106667 11.3633333,29.308 C12.098,29.44 12.3646667,28.9973333 12.3646667,28.616 C12.3646667,28.276 12.3526667,27.372 12.346,26.176 C8.266,27.0426667 7.406,24.2506667 7.406,24.2506667 C6.738,22.592 5.77666667,22.1506667 5.77666667,22.1506667 C4.44466667,21.26 5.878,21.2786667 5.878,21.2786667 C7.35,21.38 8.12333333,22.7573333 8.12333333,22.7573333 C9.43133333,24.952 11.5553333,24.3173333 12.3926667,23.9506667 C12.526,23.024 12.9033333,22.3906667 13.3233333,22.0306667 C10.066,21.6693333 6.642,20.4373333 6.642,14.9373333 C6.642,13.3706667 7.214,12.0893333 8.15266667,11.0853333 C8.00066667,10.7226667 7.498,9.26266667 8.29533333,7.28666667 C8.29533333,7.28666667 9.52733333,6.90133333 12.33,8.75733333 C13.4993333,8.43866667 14.754,8.28133333 16.0006667,8.27466667 C17.246,8.28133333 18.5006667,8.43866667 19.6726667,8.75733333 C22.4726667,6.90133333 23.702,7.28666667 23.702,7.28666667 C24.502,9.26266667 23.9993333,10.7226667 23.8473333,11.0853333 C24.7873333,12.0893333 25.3553333,13.3706667 25.3553333,14.9373333 C25.3553333,20.452 21.926,21.6653333 18.6593333,22.0213333 C19.186,22.464 19.654,23.34 19.654,24.6786667 C19.654,26.5973333 19.6366667,28.1453333 19.6366667,28.616 C19.6366667,29 19.9006667,29.4466667 20.6446667,29.3066667 C26.4673333,27.4053333 30.666,22.028 30.666,15.6893333 C30.666,7.76 24.0993333,1.33333333 15.9993333,1.33333333" id="path-1"></path>
    </defs>
    <g id="Page-1" stroke="none" stroke-width="1" fill="none" fill-rule="evenodd">
        <g id="Landing-Page" transform="translate(-161.000000, -2380.000000)">
            <g id="Group-4" transform="translate(144.000000, 2363.000000)">
                <g id="github-fill" transform="translate(16.000000, 16.000000)">
                    <mask id="mask-2" fill="white">
                        <use xlink:href="#path-1"></use>
                    </mask>
                    <use id="🎨-Icon-color" fill="#2C3547" fill-rule="evenodd" xlink:href="#path-1"></use>
                </g>
            </g>
        </g>
    </g>
</svg>