<?xml version="1.0" encoding="UTF-8"?>
<svg width="28px" height="26px" viewBox="0 0 28 26" version="1.1" xmlns="http://www.w3.org/2000/svg" xmlns:xlink="http://www.w3.org/1999/xlink">
    <!-- Generator: Sketch 53.2 (72643) - https://sketchapp.com -->
    <title>star-orange</title>
    <desc>Created with Sketch.</desc>
    <defs>
        <path d="M23.4154667,28.0009333 C23.2048,28.0009333 22.9928,27.9516 22.7981333,27.8502667 L15.9994667,24.2982667 L9.20213333,27.8502667 C8.75146667,28.0836 8.20746667,28.0436 7.79946667,27.7449333 C7.3888,27.4462667 7.1848,26.9409333 7.27146667,26.4409333 L8.56613333,18.9369333 L3.0728,13.6236 C2.70746667,13.2702667 2.57546667,12.7396 2.73146667,12.2542667 C2.88746667,11.7716 3.3048,11.4182667 3.8088,11.3462667 L11.4088,10.2422667 L14.8061333,3.4076 C15.2568,2.50093333 16.7434667,2.50093333 17.1941333,3.4076 L20.5914667,10.2422667 L28.1914667,11.3462667 C28.6954667,11.4182667 29.1128,11.7716 29.2688,12.2542667 C29.4248,12.7396 29.2928,13.2702667 28.9274667,13.6236 L23.4341333,18.9369333 L24.7288,26.4409333 C24.8154667,26.9409333 24.6101333,27.4462667 24.2008,27.7449333 C23.9688,27.9156 23.6928,28.0009333 23.4154667,28.0009333" id="path-1"></path>
    </defs>
    <g id="Page-1" stroke="none" stroke-width="1" fill="none" fill-rule="evenodd">
        <g id="Landing-Page" transform="translate(-227.000000, -2381.000000)">
            <g id="Group-4" transform="translate(144.000000, 2363.000000)">
                <g id="star-fill" transform="translate(81.000000, 16.000000)">
                    <mask id="mask-2" fill="white">
                        <use xlink:href="#path-1"></use>
                    </mask>
                    <use id="🎨-Icon-color" fill="#FFAA00" fill-rule="evenodd" xlink:href="#path-1"></use>
                </g>
            </g>
        </g>
    </g>
</svg>