<?xml version="1.0" encoding="UTF-8"?>
<svg width="20px" height="20px" viewBox="0 0 20 20" version="1.1" xmlns="http://www.w3.org/2000/svg" xmlns:xlink="http://www.w3.org/1999/xlink">
    <!-- Generator: Sketch 53.2 (72643) - https://sketchapp.com -->
    <title>github</title>
    <desc>Created with Sketch.</desc>
    <defs>
        <path d="M16.2402,22 C15.6882,22 15.2402,21.553 15.2402,21 L15.2402,18.401 C15.2872,17.738 15.0882,17.161 14.6972,16.742 C14.4382,16.466 14.3582,16.068 14.4882,15.714 C14.6182,15.359 14.9362,15.108 15.3122,15.065 C17.7462,14.783 20.0002,13.947 20.0002,9.774 C20.0002,8.974 19.7682,8.203 19.3292,7.547 C18.9282,6.949 18.7822,6.22 18.9162,5.494 C19.0042,5.021 18.9992,4.54 18.9042,4.075 C18.5002,4.195 17.8082,4.48 16.8112,5.174 C16.5662,5.344 16.2552,5.395 15.9692,5.315 C14.1652,4.808 12.2582,4.808 10.4532,5.315 C10.1662,5.395 9.8572,5.344 9.6122,5.174 C8.6252,4.487 7.9372,4.201 7.5172,4.083 C7.4232,4.544 7.4192,5.021 7.5062,5.491 C7.6392,6.213 7.4882,6.95 7.0802,7.568 C6.6462,8.227 6.4192,8.997 6.4232,9.797 C6.4232,13.691 8.3022,14.73 11.1232,15.093 C11.4952,15.141 11.8092,15.393 11.9372,15.746 C12.0642,16.099 11.9832,16.493 11.7272,16.767 C11.3402,17.182 11.1412,17.753 11.1802,18.334 L11.1812,19.122 C11.1832,19.162 11.1832,19.202 11.1812,19.242 L11.1822,21 C11.1822,21.553 10.7352,22 10.1822,22 C9.6302,22 9.1822,21.553 9.1822,21 L9.1822,20.429 C6.4972,20.779 4.9672,19.34 3.9062,18.34 C3.4662,17.927 3.0522,17.536 2.7492,17.457 C2.2142,17.318 1.8932,16.772 2.0322,16.238 C2.1712,15.704 2.7172,15.378 3.2512,15.521 C4.0502,15.729 4.6462,16.29 5.2772,16.884 C6.2992,17.847 7.2692,18.759 9.1822,18.404 L9.1822,18.401 C9.1452,17.872 9.2242,17.33 9.4072,16.817 C7.3532,16.305 4.4232,14.812 4.4232,9.802 C4.4172,8.61 4.7592,7.456 5.4102,6.467 C5.5322,6.282 5.5782,6.065 5.5392,5.854 C5.3392,4.771 5.4542,3.659 5.8742,2.643 C5.9882,2.367 6.2192,2.156 6.5042,2.068 C6.8352,1.966 8.0552,1.771 10.3662,3.271 C12.2372,2.822 14.1862,2.822 16.0562,3.271 C18.3682,1.771 19.5872,1.965 19.9182,2.068 C20.2032,2.156 20.4342,2.367 20.5482,2.643 C20.9692,3.661 21.0842,4.772 20.8832,5.858 C20.8442,6.067 20.8832,6.272 20.9912,6.435 C21.6512,7.422 22.0002,8.576 22.0002,9.774 C22.0002,14.838 19.0772,16.313 17.0202,16.807 C17.2042,17.336 17.2812,17.905 17.2372,18.478 L17.2402,21 C17.2402,21.553 16.7922,22 16.2402,22" id="path-1"></path>
    </defs>
    <g id="Page-1" stroke="none" stroke-width="1" fill="none" fill-rule="evenodd">
        <g id="Artboard" transform="translate(-154.000000, -40.000000)">
            <g id="github" transform="translate(152.000000, 38.000000)">
                <mask id="mask-2" fill="white">
                    <use xlink:href="#path-1"></use>
                </mask>
                <use id="🎨-Icon-color" fill="#FFFFFF" fill-rule="evenodd" xlink:href="#path-1"></use>
            </g>
        </g>
    </g>
</svg>